<?xml version="1.0" standalone="no"?>
<!DOCTYPE svg PUBLIC "-//W3C//DTD SVG 20010904//EN"
 "http://www.w3.org/TR/2001/REC-SVG-20010904/DTD/svg10.dtd">
<svg version="1.0" xmlns="http://www.w3.org/2000/svg"
 width="100.000000pt" height="100.000000pt" viewBox="0 0 100.000000 100.000000"
 preserveAspectRatio="xMidYMid meet">

<g transform="translate(0.000000,100.000000) scale(0.100000,-0.100000)"
fill="#ff0c0c" stroke="none">
<path d="M360 655 c0 -167 2 -195 15 -195 8 0 15 -7 15 -15 0 -13 24 -15 155
-15 l155 0 0 144 c0 115 -3 146 -15 156 -10 8 -15 31 -15 66 l0 54 -155 0
-155 0 0 -195z m290 148 l0 -37 -28 28 c-28 26 -32 27 -128 24 l-99 -3 -3
-167 c-1 -100 -6 -168 -12 -168 -10 0 -12 336 -3 353 2 4 65 7 139 7 l134 0 0
-37z m-61 -50 l-3 -48 47 -3 c58 -4 59 -8 55 -152 l-3 -105 -137 -3 -138 -3 0
181 0 180 91 0 91 0 -3 -47z m51 2 l34 -35 -37 0 c-36 0 -37 1 -37 35 0 19 1
35 3 35 2 0 18 -16 37 -35z"/>
<path d="M455 720 c3 -5 21 -10 40 -10 19 0 37 5 40 10 4 6 -12 10 -40 10 -28
0 -44 -4 -40 -10z"/>
<path d="M455 670 c-4 -6 28 -10 89 -10 57 0 96 4 96 10 0 6 -36 10 -89 10
-50 0 -93 -4 -96 -10z"/>
<path d="M455 610 c3 -5 46 -10 96 -10 53 0 89 4 89 10 0 6 -39 10 -96 10 -61
0 -93 -4 -89 -10z"/>
<path d="M498 553 c29 -2 74 -2 100 0 26 2 2 3 -53 3 -55 0 -76 -1 -47 -3z"/>
<path d="M450 500 c0 -6 38 -10 95 -10 57 0 95 4 95 10 0 6 -38 10 -95 10 -57
0 -95 -4 -95 -10z"/>
<path d="M160 530 l0 -290 290 0 290 0 0 70 c0 40 -4 70 -10 70 -6 0 -10 -27
-10 -60 l0 -60 -270 0 -270 0 0 270 0 270 60 0 c33 0 60 4 60 10 0 6 -30 10
-70 10 l-70 0 0 -290z"/>
</g>
</svg>
