<?xml version="1.0" standalone="no"?>
<!DOCTYPE svg PUBLIC "-//W3C//DTD SVG 20010904//EN"
 "http://www.w3.org/TR/2001/REC-SVG-20010904/DTD/svg10.dtd">
<svg version="1.0" xmlns="http://www.w3.org/2000/svg"
 width="100.000000pt" height="100.000000pt" viewBox="0 0 100.000000 100.000000"
 preserveAspectRatio="xMidYMid meet">

<g transform="translate(0.000000,100.000000) scale(0.100000,-0.100000)"
fill="#ff0c0c" stroke="none">
<path d="M380 830 c11 -11 25 -20 30 -20 6 0 10 -19 10 -43 0 -48 9 -63 59
-97 l34 -23 -24 -19 c-66 -51 -69 -55 -69 -102 0 -25 -4 -46 -10 -46 -5 0 -19
-9 -30 -20 l-20 -20 170 0 170 0 -20 20 c-11 11 -24 20 -30 20 -5 0 -10 21
-10 46 0 47 -3 51 -69 102 l-24 19 34 23 c50 34 59 49 59 97 0 24 5 43 10 43
6 0 19 9 30 20 l20 20 -170 0 -170 0 20 -20z m275 0 c4 -6 -40 -10 -125 -10
-85 0 -129 4 -125 10 4 6 57 10 125 10 68 0 121 -4 125 -10z m-35 -67 c0 -44
-4 -50 -39 -75 -22 -16 -45 -28 -51 -28 -6 0 -29 12 -51 28 -35 25 -39 31 -39
75 l0 47 90 0 90 0 0 -47z m-40 -159 c38 -25 40 -30 40 -75 l0 -49 -90 0 -90
0 0 49 c0 45 3 50 38 74 47 33 54 33 102 1z m80 -144 c0 -6 -50 -10 -130 -10
-80 0 -130 4 -130 10 0 6 50 10 130 10 80 0 130 -4 130 -10z"/>
<path d="M451 743 c-1 -12 9 -29 21 -37 29 -20 39 -10 12 12 -12 9 -24 24 -27
32 -4 10 -6 8 -6 -7z"/>
<path d="M560 581 c0 -5 7 -11 15 -15 9 -3 20 -16 25 -28 8 -22 9 -22 9 -2 1
11 -7 28 -17 37 -21 19 -32 22 -32 8z"/>
<path d="M160 540 l0 -290 290 0 290 0 0 70 c0 40 -4 70 -10 70 -6 0 -10 -27
-10 -60 l0 -60 -270 0 -270 0 0 270 0 270 60 0 c33 0 60 4 60 10 0 6 -30 10
-70 10 l-70 0 0 -290z"/>
</g>
</svg>
