<?xml version="1.0" standalone="no"?>
<!DOCTYPE svg PUBLIC "-//W3C//DTD SVG 20010904//EN"
 "http://www.w3.org/TR/2001/REC-SVG-20010904/DTD/svg10.dtd">
<svg version="1.0" xmlns="http://www.w3.org/2000/svg"
 width="100.000000pt" height="100.000000pt" viewBox="0 0 100.000000 100.000000"
 preserveAspectRatio="xMidYMid meet">

<g transform="translate(0.000000,100.000000) scale(0.100000,-0.100000)"
fill="#ff0c0c" stroke="none">
<path d="M160 550 l0 -290 290 0 290 0 0 70 c0 40 -4 70 -10 70 -6 0 -10 -27
-10 -60 l0 -60 -270 0 -270 0 0 270 0 270 60 0 c33 0 60 4 60 10 0 6 -30 10
-70 10 l-70 0 0 -290z"/>
<path d="M430 785 c-52 -30 -96 -59 -98 -64 -2 -5 11 -17 29 -26 l31 -17 -36
-22 -36 -22 36 -21 37 -21 -31 -16 c-18 -9 -32 -20 -32 -24 0 -4 45 -34 100
-66 l100 -58 100 58 c55 32 100 62 100 66 0 4 -14 15 -31 24 l-31 16 36 22 36
22 -36 21 -37 21 31 16 c18 9 32 20 32 25 0 7 -191 122 -202 121 -1 0 -46 -25
-98 -55z m186 -12 c46 -27 84 -50 84 -53 0 -3 -38 -27 -85 -53 l-85 -48 -85
48 c-47 26 -85 50 -85 53 0 5 160 99 169 100 2 0 41 -21 87 -47z m-23 -139
c61 34 63 35 86 17 l23 -18 -79 -46 c-44 -26 -86 -47 -93 -47 -7 0 -49 21 -93
47 l-79 46 23 18 c23 18 25 17 87 -17 l62 -35 63 35z m-122 -86 l59 -33 59 33
c52 28 62 31 85 21 14 -7 26 -15 26 -18 0 -3 -38 -28 -85 -54 l-85 -48 -85 48
c-47 26 -85 51 -85 54 0 5 36 26 49 28 2 1 30 -14 62 -31z"/>
</g>
</svg>
