<?xml version="1.0" standalone="no"?>
<!DOCTYPE svg PUBLIC "-//W3C//DTD SVG 20010904//EN"
 "http://www.w3.org/TR/2001/REC-SVG-20010904/DTD/svg10.dtd">
<svg version="1.0" xmlns="http://www.w3.org/2000/svg"
 width="100.000000pt" height="100.000000pt" viewBox="0 0 100.000000 100.000000"
 preserveAspectRatio="xMidYMid meet">

<g transform="translate(0.000000,100.000000) scale(0.100000,-0.100000)"
fill="#ff0c0c" stroke="none">
<path d="M160 550 l0 -290 290 0 290 0 0 70 c0 40 -4 70 -10 70 -6 0 -10 -27
-10 -60 l0 -60 -270 0 -270 0 0 270 0 270 60 0 c33 0 60 4 60 10 0 6 -30 10
-70 10 l-70 0 0 -290z"/>
<path d="M365 770 l-37 -60 102 -128 c56 -70 106 -127 110 -127 4 0 54 57 110
127 l102 128 -37 60 -36 60 -139 0 -139 0 -36 -60z m155 43 c-1 -5 -16 -26
-35 -48 l-34 -40 -9 25 c-27 72 -28 70 27 70 28 0 51 -3 51 -7z m134 -15 c-4
-13 -11 -34 -16 -48 l-9 -25 -34 40 c-19 22 -34 43 -35 48 0 4 23 7 51 7 48 0
50 -1 43 -22z m-224 -65 c0 -8 -13 -13 -35 -13 -19 0 -35 3 -35 6 0 4 10 23
22 42 l22 36 13 -30 c6 -16 12 -35 13 -41z m150 30 l31 -38 -36 -3 c-19 -2
-51 -2 -70 0 l-36 3 31 38 c18 20 35 37 40 37 5 0 22 -17 40 -37z m119 3 c28
-44 27 -46 -14 -46 -19 0 -35 4 -35 9 0 11 21 71 25 71 2 0 13 -15 24 -34z
m-225 -149 c16 -45 31 -89 34 -97 4 -12 -82 91 -141 168 -7 9 1 12 34 12 l44
0 29 -83z m117 6 c-49 -131 -53 -139 -59 -123 -3 8 -20 57 -38 108 l-34 92 80
0 79 0 -28 -77z m122 65 c-17 -23 -136 -173 -145 -183 -5 -5 3 22 18 60 15 39
31 85 37 103 10 30 13 32 55 32 34 0 42 -3 35 -12z"/>
</g>
</svg>
