<?xml version="1.0" standalone="no"?>
<!DOCTYPE svg PUBLIC "-//W3C//DTD SVG 20010904//EN"
 "http://www.w3.org/TR/2001/REC-SVG-20010904/DTD/svg10.dtd">
<svg version="1.0" xmlns="http://www.w3.org/2000/svg"
 width="100.000000pt" height="100.000000pt" viewBox="0 0 100.000000 100.000000"
 preserveAspectRatio="xMidYMid meet">

<g transform="translate(0.000000,100.000000) scale(0.100000,-0.100000)"
fill="#ff0c0c" stroke="none">
<path d="M404 824 c-21 -20 -25 -32 -21 -62 10 -67 24 -123 36 -135 22 -22 10
-36 -44 -53 -69 -22 -88 -43 -89 -97 l-1 -42 205 0 205 0 -2 44 c-3 55 -19 73
-88 95 -51 16 -69 36 -46 51 12 7 41 105 41 139 0 15 -10 40 -22 56 -20 28
-26 30 -85 30 -55 0 -67 -4 -89 -26z m160 -9 c9 -13 16 -31 16 -40 0 -14 -3
-14 -25 1 -20 13 -37 15 -77 10 -29 -4 -59 -12 -66 -19 -11 -9 -13 -5 -10 18
4 37 36 55 99 55 39 0 49 -4 63 -25z m-5 -58 c21 -18 9 -102 -19 -132 -49 -53
-119 -14 -127 71 -6 56 4 69 52 77 37 5 76 -1 94 -16z m-46 -179 c-2 -5 -13
-8 -23 -8 -10 0 -21 3 -23 8 -3 4 8 7 23 7 15 0 26 -3 23 -7z m-54 -10 c15 -9
17 -16 10 -31 -10 -18 -11 -18 -24 0 -14 18 -20 43 -10 43 3 0 14 -5 24 -12z
m91 0 c0 -7 -7 -21 -14 -31 -14 -18 -15 -18 -24 -1 -8 14 -6 21 6 31 22 16 32
16 32 1z m-163 -22 c-3 -7 12 -30 34 -52 21 -21 39 -42 39 -46 0 -5 -35 -8
-77 -6 l-78 3 0 40 c0 36 4 42 35 57 42 22 54 23 47 4z m33 4 c0 -5 -5 -10
-11 -10 -5 0 -7 5 -4 10 3 6 8 10 11 10 2 0 4 -4 4 -10z m155 0 c3 -5 1 -10
-4 -10 -6 0 -11 5 -11 10 0 6 2 10 4 10 3 0 8 -4 11 -10z m83 -17 c19 -11 23
-22 20 -51 l-3 -37 -77 -3 c-43 -2 -78 1 -78 6 0 4 18 25 39 46 24 24 37 44
34 53 -5 12 -1 14 18 8 13 -4 34 -14 47 -22z m-217 -25 c11 -21 11 -22 -4 -9
-10 7 -17 17 -17 22 0 15 9 10 21 -13z m105 -6 c-18 -16 -18 -16 -6 6 6 13 14
21 18 18 3 -4 -2 -14 -12 -24z m-46 -27 c0 -8 -4 -15 -10 -15 -5 0 -10 7 -10
15 0 8 5 15 10 15 6 0 10 -7 10 -15z"/>
<path d="M160 530 l0 -290 290 0 290 0 0 70 c0 40 -4 70 -10 70 -6 0 -10 -27
-10 -60 l0 -60 -270 0 -270 0 0 270 0 270 60 0 c33 0 60 4 60 10 0 6 -30 10
-70 10 l-70 0 0 -290z"/>
</g>
</svg>
