<?xml version="1.0" standalone="no"?>
<!DOCTYPE svg PUBLIC "-//W3C//DTD SVG 20010904//EN"
 "http://www.w3.org/TR/2001/REC-SVG-20010904/DTD/svg10.dtd">
<svg version="1.0" xmlns="http://www.w3.org/2000/svg"
 width="100.000000pt" height="100.000000pt" viewBox="0 0 100.000000 100.000000"
 preserveAspectRatio="xMidYMid meet">

<g transform="translate(0.000000,100.000000) scale(0.100000,-0.100000)"
fill="#ff0c0c" stroke="none">
<path d="M524 843 c-9 -16 -29 -51 -45 -80 l-29 -52 -57 -3 -58 -3 0 -140 0
-140 169 -3 c106 -1 173 1 180 8 14 14 13 207 -1 221 -9 9 -5 26 15 66 l27 55
-25 20 c-29 23 -134 78 -150 78 -6 0 -18 -12 -26 -27z m46 1 c0 -18 -94 -174
-105 -174 -12 0 28 87 72 158 12 20 33 30 33 16z m30 -21 c1 -18 -76 -153 -87
-153 -6 0 7 36 30 80 37 71 57 95 57 73z m65 -30 c19 -9 35 -21 35 -26 0 -4
-12 -28 -26 -53 -25 -43 -28 -44 -75 -44 -27 0 -49 3 -49 7 0 9 70 133 75 133
2 0 20 -8 40 -17z m-235 -113 c0 -5 -18 -10 -40 -10 -22 0 -40 5 -40 10 0 6
18 10 40 10 22 0 40 -4 40 -10z m240 -64 c0 -30 -3 -35 -27 -38 -25 -3 -28 -7
-28 -38 0 -31 3 -35 28 -38 23 -3 27 -8 27 -33 l0 -29 -160 0 -160 0 0 105 0
105 160 0 160 0 0 -34z m20 -76 c0 -16 -7 -20 -30 -20 -23 0 -30 4 -30 20 0
16 7 20 30 20 23 0 30 -4 30 -20z"/>
<path d="M631 762 c-12 -23 1 -45 25 -40 23 4 31 37 12 49 -19 13 -26 11 -37
-9z m29 -12 c0 -5 -5 -10 -11 -10 -5 0 -7 5 -4 10 3 6 8 10 11 10 2 0 4 -4 4
-10z"/>
<path d="M160 520 l0 -290 290 0 290 0 0 70 c0 40 -4 70 -10 70 -6 0 -10 -27
-10 -60 l0 -60 -270 0 -270 0 0 270 0 270 60 0 c33 0 60 4 60 10 0 6 -30 10
-70 10 l-70 0 0 -290z"/>
</g>
</svg>
